<svg width="20" height="20" viewBox="0 0 20 20" fill="none" xmlns="http://www.w3.org/2000/svg">
<path d="M20 4.61523H0V6.15351H20V4.61523Z" fill="#F5F5F5"/>
<path d="M18.9556 1.53845H1.04437C0.665152 1.9833 0.373316 2.5049 0.195816 3.07693H19.8042C19.6267 2.5049 19.3348 1.9833 18.9556 1.53845Z" fill="#F5F5F5"/>
<path d="M20 7.69214H0V9.23042H20V7.69214Z" fill="#F5F5F5"/>
<path d="M20 10.7692H0V12.3074H20V10.7692Z" fill="#F5F5F5"/>
<path d="M20 13.8461H0V15.3844H20V13.8461Z" fill="#F5F5F5"/>
<path d="M19.8042 16.9231H0.195816C0.373277 17.4951 0.665152 18.0167 1.04437 18.4615H18.9556C19.3348 18.0167 19.6267 17.4951 19.8042 16.9231Z" fill="#F5F5F5"/>
<path d="M15.625 0H4.37501C3.04111 0 1.84685 0.597148 1.04439 1.53848H18.9556C18.1532 0.597148 16.9589 0 15.625 0Z" fill="#FF4B55"/>
<path d="M20 6.15393H0V7.69221H20V6.15393Z" fill="#FF4B55"/>
<path d="M20 4.37495C20 3.92296 19.9314 3.48702 19.8042 3.0769H0.19582C0.0685547 3.48702 0 3.92296 0 4.37495V4.61534H20V4.37495Z" fill="#FF4B55"/>
<path d="M20 9.23083H0V10.7691H20V9.23083Z" fill="#FF4B55"/>
<path d="M20 15.625V15.3846H0V15.625C0 16.077 0.0685547 16.513 0.19582 16.9231H19.8042C19.9314 16.513 20 16.077 20 15.625Z" fill="#FF4B55"/>
<path d="M18.9556 18.4615H1.04439C1.84685 19.4029 3.04111 20 4.37501 20H15.625C16.9589 20 18.1532 19.4029 18.9556 18.4615Z" fill="#FF4B55"/>
<path d="M20 12.3079H0V13.8461H20V12.3079Z" fill="#FF4B55"/>
<path d="M10.7692 0H4.375C1.95875 0 0 1.95875 0 4.375V10.7692H10.7692V0Z" fill="#41479B"/>
<path d="M1.16192 1.68211C1.15169 1.71449 1.18852 1.74129 1.21618 1.72152L1.42958 1.56902L1.64297 1.72152C1.67059 1.74129 1.70747 1.71449 1.69723 1.68211L1.61813 1.43203L1.82915 1.27621C1.85645 1.25602 1.84239 1.21269 1.8084 1.21242L1.54614 1.21039L1.50137 1.07617C1.38895 1.17418 1.28173 1.27793 1.17989 1.3868L1.2411 1.43203L1.16192 1.68211Z" fill="#F5F5F5"/>
<path d="M1.46309 3.03735L1.54606 3.28618L1.80833 3.28821C1.84227 3.28849 1.85638 3.33181 1.82907 3.352L1.61805 3.50782L1.69716 3.7579C1.70739 3.79028 1.67055 3.81704 1.6429 3.79732L1.4295 3.64478L1.2161 3.79732C1.18848 3.81708 1.15161 3.79028 1.16184 3.7579L1.24094 3.50782L1.02993 3.352C1.00262 3.33185 1.01669 3.28849 1.05063 3.28821L1.3129 3.28618L1.39587 3.03735C1.40677 3.00513 1.45235 3.00513 1.46309 3.03735Z" fill="#F5F5F5"/>
<path d="M1.46309 5.33936L1.54606 5.58818L1.80833 5.59021C1.84227 5.59049 1.85638 5.63381 1.82907 5.654L1.61805 5.80982L1.69716 6.0599C1.70739 6.09228 1.67055 6.11904 1.6429 6.09931L1.4295 5.94681L1.2161 6.09931C1.18848 6.11904 1.15161 6.09228 1.16184 6.0599L1.24094 5.80982L1.02993 5.654C1.00262 5.63384 1.01669 5.59049 1.05063 5.59021L1.3129 5.58818L1.39587 5.33936C1.40677 5.30713 1.45235 5.30713 1.46309 5.33936Z" fill="#F5F5F5"/>
<path d="M1.46309 7.45447L1.54606 7.70329L1.80833 7.70532C1.84227 7.7056 1.85638 7.74892 1.82907 7.76911L1.61805 7.92493L1.69716 8.17501C1.70739 8.20739 1.67055 8.23415 1.6429 8.21442L1.4295 8.06188L1.2161 8.21442C1.18848 8.23415 1.15161 8.20739 1.16184 8.17501L1.24094 7.92493L1.02993 7.76911C1.00262 7.74896 1.01669 7.7056 1.05063 7.70532L1.3129 7.70329L1.39587 7.45447C1.40677 7.42224 1.45235 7.42224 1.46309 7.45447Z" fill="#F5F5F5"/>
<path d="M1.46309 9.37915L1.54606 9.62798L1.80833 9.63001C1.84227 9.63028 1.85638 9.6736 1.82907 9.69379L1.61805 9.84961L1.69716 10.0997C1.70739 10.1321 1.67055 10.1588 1.6429 10.1391L1.4295 9.9866L1.2161 10.1391C1.18848 10.1588 1.15161 10.1321 1.16184 10.0997L1.24094 9.84961L1.02993 9.69379C1.00262 9.67364 1.01669 9.63028 1.05063 9.63001L1.3129 9.62798L1.39587 9.37915C1.40677 9.34692 1.45235 9.34692 1.46309 9.37915Z" fill="#F5F5F5"/>
<path d="M2.47336 1.94458L2.55633 2.19341L2.8186 2.19544C2.85254 2.19571 2.86664 2.23903 2.83934 2.25919L2.62832 2.41501L2.70743 2.66509C2.71766 2.69747 2.68082 2.72427 2.65317 2.7045L2.43985 2.55196L2.22645 2.7045C2.19883 2.72427 2.16196 2.69747 2.17219 2.66509L2.25129 2.41501L2.04032 2.25919C2.01301 2.23903 2.02708 2.19567 2.06102 2.19544L2.32329 2.19341L2.40626 1.94458C2.41704 1.91235 2.46262 1.91235 2.47336 1.94458Z" fill="#F5F5F5"/>
<path d="M2.47337 4.2467L2.55633 4.49553L2.8186 4.49756C2.85254 4.49784 2.86665 4.54116 2.83934 4.56135L2.62833 4.71717L2.70743 4.96725C2.71766 4.99964 2.68083 5.02643 2.65317 5.00667L2.43977 4.85413L2.22638 5.00667C2.19876 5.02643 2.16188 4.99964 2.17212 4.96725L2.25122 4.71717L2.04024 4.56135C2.01294 4.5412 2.027 4.49784 2.06095 4.49756L2.32321 4.49553L2.40618 4.2467C2.41704 4.21448 2.46262 4.21448 2.47337 4.2467Z" fill="#F5F5F5"/>
<path d="M2.47337 6.43381L2.55633 6.68264L2.8186 6.68467C2.85254 6.68494 2.86665 6.72826 2.83934 6.74846L2.62833 6.90428L2.70743 7.15436C2.71766 7.18674 2.68083 7.2135 2.65317 7.19377L2.43977 7.04123L2.22638 7.19377C2.19876 7.21354 2.16188 7.18674 2.17212 7.15436L2.25122 6.90428L2.04024 6.74846C2.01294 6.7283 2.027 6.68494 2.06095 6.68467L2.32321 6.68264L2.40618 6.43381C2.41704 6.40162 2.46262 6.40162 2.47337 6.43381Z" fill="#F5F5F5"/>
<path d="M2.47337 8.39795L2.55633 8.64678L2.8186 8.64881C2.85254 8.64908 2.86665 8.6924 2.83934 8.7126L2.62833 8.86841L2.70743 9.11849C2.71766 9.15087 2.68083 9.17767 2.65317 9.1579L2.43977 9.00541L2.22638 9.1579C2.19876 9.17767 2.16188 9.15087 2.17212 9.11849L2.25122 8.86841L2.04024 8.7126C2.01294 8.69244 2.027 8.64908 2.06095 8.64881L2.32321 8.64678L2.40618 8.39795C2.41704 8.36572 2.46262 8.36572 2.47337 8.39795Z" fill="#F5F5F5"/>
<path d="M3.48364 0.961641L3.5666 1.21047L3.82887 1.2125C3.86281 1.21277 3.87692 1.25609 3.84961 1.27625L3.6386 1.43207L3.7177 1.68215C3.72793 1.71453 3.6911 1.74129 3.66344 1.72156L3.45004 1.56902L3.23664 1.72156C3.20903 1.74133 3.17215 1.71453 3.18239 1.68215L3.26149 1.43207L3.05051 1.27625C3.02321 1.25609 3.03727 1.21273 3.07122 1.2125L3.33348 1.21047L3.41645 0.961641C3.42731 0.929453 3.47289 0.929453 3.48364 0.961641Z" fill="#F5F5F5"/>
<path d="M3.48364 3.03735L3.5666 3.28618L3.82887 3.28821C3.86281 3.28849 3.87692 3.33181 3.84961 3.352L3.6386 3.50782L3.7177 3.7579C3.72793 3.79028 3.6911 3.81704 3.66344 3.79732L3.45004 3.64478L3.23664 3.79732C3.20903 3.81708 3.17215 3.79028 3.18239 3.7579L3.26149 3.50782L3.05051 3.352C3.02321 3.33185 3.03727 3.28849 3.07122 3.28821L3.33348 3.28618L3.41645 3.03735C3.42731 3.00513 3.47289 3.00513 3.48364 3.03735Z" fill="#F5F5F5"/>
<path d="M3.48364 5.33936L3.5666 5.58818L3.82887 5.59021C3.86281 5.59049 3.87692 5.63381 3.84961 5.654L3.6386 5.80982L3.7177 6.0599C3.72793 6.09228 3.6911 6.11904 3.66344 6.09931L3.45004 5.94681L3.23664 6.09931C3.20903 6.11904 3.17215 6.09228 3.18239 6.0599L3.26149 5.80982L3.05051 5.654C3.02321 5.63384 3.03727 5.59049 3.07122 5.59021L3.33348 5.58818L3.41645 5.33936C3.42731 5.30713 3.47289 5.30713 3.48364 5.33936Z" fill="#F5F5F5"/>
<path d="M3.48364 7.45447L3.5666 7.70329L3.82887 7.70532C3.86281 7.7056 3.87692 7.74892 3.84961 7.76911L3.6386 7.92493L3.7177 8.17501C3.72793 8.20739 3.6911 8.23415 3.66344 8.21442L3.45004 8.06188L3.23664 8.21442C3.20903 8.23415 3.17215 8.20739 3.18239 8.17501L3.26149 7.92493L3.05051 7.76911C3.02321 7.74896 3.03727 7.7056 3.07122 7.70532L3.33348 7.70329L3.41645 7.45447C3.42731 7.42224 3.47289 7.42224 3.48364 7.45447Z" fill="#F5F5F5"/>
<path d="M3.48364 9.37915L3.5666 9.62798L3.82887 9.63001C3.86281 9.63028 3.87692 9.6736 3.84961 9.69379L3.6386 9.84961L3.7177 10.0997C3.72793 10.1321 3.6911 10.1588 3.66344 10.1391L3.45004 9.9866L3.23664 10.1391C3.20903 10.1588 3.17215 10.1321 3.18239 10.0997L3.26149 9.84961L3.05051 9.69379C3.02321 9.67364 3.03727 9.63028 3.07122 9.63001L3.33348 9.62798L3.41645 9.37915C3.42731 9.34692 3.47289 9.34692 3.48364 9.37915Z" fill="#F5F5F5"/>
<path d="M4.49391 1.94458L4.57688 2.19341L4.83915 2.19544C4.87309 2.19571 4.8872 2.23903 4.85985 2.25919L4.64888 2.41501L4.72798 2.66509C4.73821 2.69747 4.70138 2.72427 4.67372 2.7045L4.46032 2.55196L4.24692 2.7045C4.2193 2.72427 4.18243 2.69747 4.19266 2.66509L4.27177 2.41501L4.06075 2.25919C4.03344 2.23903 4.04751 2.19567 4.08149 2.19544L4.34376 2.19341L4.42673 1.94458C4.43762 1.91235 4.48317 1.91235 4.49391 1.94458Z" fill="#F5F5F5"/>
<path d="M4.49391 4.2467L4.57688 4.49553L4.83915 4.49756C4.87309 4.49784 4.8872 4.54116 4.85985 4.56135L4.64888 4.71717L4.72798 4.96725C4.73821 4.99964 4.70138 5.02643 4.67372 5.00667L4.46032 4.85413L4.24692 5.00667C4.2193 5.02643 4.18243 4.99964 4.19266 4.96725L4.27177 4.71717L4.06075 4.56135C4.03344 4.5412 4.04751 4.49784 4.08149 4.49756L4.34376 4.49553L4.42673 4.2467C4.43762 4.21448 4.48317 4.21448 4.49391 4.2467Z" fill="#F5F5F5"/>
<path d="M4.49391 6.43381L4.57688 6.68264L4.83915 6.68467C4.87309 6.68494 4.8872 6.72826 4.85985 6.74846L4.64888 6.90428L4.72798 7.15436C4.73821 7.18674 4.70138 7.2135 4.67372 7.19377L4.46032 7.04123L4.24692 7.19377C4.2193 7.21354 4.18243 7.18674 4.19266 7.15436L4.27177 6.90428L4.06075 6.74846C4.03344 6.7283 4.04751 6.68494 4.08149 6.68467L4.34376 6.68264L4.42673 6.43381C4.43762 6.40162 4.48317 6.40162 4.49391 6.43381Z" fill="#F5F5F5"/>
<path d="M4.49391 8.39795L4.57688 8.64678L4.83915 8.64881C4.87309 8.64908 4.8872 8.6924 4.85985 8.7126L4.64888 8.86841L4.72798 9.11849C4.73821 9.15087 4.70138 9.17767 4.67372 9.1579L4.46032 9.00541L4.24692 9.1579C4.2193 9.17767 4.18243 9.15087 4.19266 9.11849L4.27177 8.86841L4.06075 8.7126C4.03344 8.69244 4.04751 8.64908 4.08149 8.64881L4.34376 8.64678L4.42673 8.39795C4.43762 8.36572 4.48317 8.36572 4.49391 8.39795Z" fill="#F5F5F5"/>
<path d="M5.50419 0.961641L5.58716 1.21047L5.84943 1.2125C5.88337 1.21277 5.89748 1.25609 5.87013 1.27625L5.65915 1.43207L5.73826 1.68215C5.74849 1.71453 5.71165 1.74129 5.684 1.72156L5.4706 1.56902L5.2572 1.72156C5.22958 1.74133 5.19271 1.71453 5.20294 1.68215L5.28204 1.43207L5.07106 1.27625C5.04376 1.25609 5.05782 1.21273 5.09181 1.2125L5.35407 1.21047L5.43704 0.961641C5.4479 0.929453 5.49345 0.929453 5.50419 0.961641Z" fill="#F5F5F5"/>
<path d="M5.50418 3.03736L5.58715 3.28619L5.84941 3.28822C5.88336 3.28849 5.89746 3.33181 5.87011 3.35201L5.65914 3.50783L5.73828 3.75787C5.74851 3.79025 5.71168 3.81701 5.68402 3.79728L5.47062 3.64474L5.25723 3.79728C5.22961 3.81705 5.19273 3.79025 5.20297 3.75787L5.28207 3.50779L5.07109 3.35197C5.04379 3.33181 5.05785 3.28845 5.09184 3.28818L5.3541 3.28615L5.43707 3.03732C5.44789 3.00513 5.49344 3.00513 5.50418 3.03736Z" fill="#F5F5F5"/>
<path d="M5.50419 5.33936L5.58716 5.58818L5.84943 5.59021C5.88337 5.59049 5.89748 5.63381 5.87013 5.654L5.65915 5.80982L5.73826 6.0599C5.74849 6.09228 5.71165 6.11904 5.684 6.09931L5.4706 5.94681L5.2572 6.09931C5.22958 6.11904 5.19271 6.09228 5.20294 6.0599L5.28204 5.80982L5.07106 5.654C5.04376 5.63384 5.05782 5.59049 5.09181 5.59021L5.35407 5.58818L5.43704 5.33936C5.4479 5.30713 5.49345 5.30713 5.50419 5.33936Z" fill="#F5F5F5"/>
<path d="M5.50419 7.45447L5.58716 7.70329L5.84943 7.70532C5.88337 7.7056 5.89748 7.74892 5.87013 7.76911L5.65915 7.92493L5.73826 8.17501C5.74849 8.20739 5.71165 8.23415 5.684 8.21442L5.4706 8.06188L5.2572 8.21442C5.22958 8.23415 5.19271 8.20739 5.20294 8.17501L5.28204 7.92493L5.07106 7.76911C5.04376 7.74896 5.05782 7.7056 5.09181 7.70532L5.35407 7.70329L5.43704 7.45447C5.4479 7.42224 5.49345 7.42224 5.50419 7.45447Z" fill="#F5F5F5"/>
<path d="M5.50419 9.37915L5.58716 9.62798L5.84943 9.63001C5.88337 9.63028 5.89748 9.6736 5.87013 9.69379L5.65915 9.84961L5.73826 10.0997C5.74849 10.1321 5.71165 10.1588 5.684 10.1391L5.4706 9.9866L5.2572 10.1391C5.22958 10.1588 5.19271 10.1321 5.20294 10.0997L5.28204 9.84961L5.07106 9.69379C5.04376 9.67364 5.05782 9.63028 5.09181 9.63001L5.35407 9.62798L5.43704 9.37915C5.4479 9.34692 5.49345 9.34692 5.50419 9.37915Z" fill="#F5F5F5"/>
<path d="M6.51445 1.94458L6.59742 2.19341L6.85968 2.19544C6.89363 2.19571 6.90773 2.23903 6.88039 2.25919L6.66937 2.41501L6.74847 2.66509C6.75871 2.69747 6.72183 2.72427 6.69422 2.7045L6.48082 2.55196L6.26742 2.7045C6.2398 2.72427 6.20293 2.69747 6.21316 2.66509L6.29226 2.41501L6.08129 2.25919C6.05398 2.23903 6.06805 2.19567 6.10199 2.19544L6.36426 2.19341L6.44722 1.94458C6.45816 1.91235 6.50371 1.91235 6.51445 1.94458Z" fill="#F5F5F5"/>
<path d="M6.51445 4.2467L6.59742 4.49553L6.85968 4.49756C6.89363 4.49784 6.90773 4.54116 6.88039 4.56135L6.66937 4.71717L6.74847 4.96725C6.75871 4.99964 6.72183 5.02643 6.69422 5.00667L6.48082 4.85413L6.26742 5.00667C6.2398 5.02643 6.20293 4.99964 6.21316 4.96725L6.29226 4.71717L6.08129 4.56135C6.05398 4.5412 6.06805 4.49784 6.10199 4.49756L6.36426 4.49553L6.44722 4.2467C6.45816 4.21448 6.50371 4.21448 6.51445 4.2467Z" fill="#F5F5F5"/>
<path d="M6.51445 6.43381L6.59742 6.68264L6.85968 6.68467C6.89363 6.68494 6.90773 6.72826 6.88039 6.74846L6.66937 6.90428L6.74847 7.15436C6.75871 7.18674 6.72183 7.2135 6.69422 7.19377L6.48082 7.04123L6.26742 7.19377C6.2398 7.21354 6.20293 7.18674 6.21316 7.15436L6.29226 6.90428L6.08129 6.74846C6.05398 6.7283 6.06805 6.68494 6.10199 6.68467L6.36426 6.68264L6.44722 6.43381C6.45816 6.40162 6.50371 6.40162 6.51445 6.43381Z" fill="#F5F5F5"/>
<path d="M6.51445 8.39795L6.59742 8.64678L6.85968 8.64881C6.89363 8.64908 6.90773 8.6924 6.88039 8.7126L6.66937 8.86841L6.74847 9.11849C6.75871 9.15087 6.72183 9.17767 6.69422 9.1579L6.48082 9.00541L6.26742 9.1579C6.2398 9.17767 6.20293 9.15087 6.21316 9.11849L6.29226 8.86841L6.08129 8.7126C6.05398 8.69244 6.06805 8.64908 6.10199 8.64881L6.36426 8.64678L6.44722 8.39795C6.45816 8.36572 6.50371 8.36572 6.51445 8.39795Z" fill="#F5F5F5"/>
<path d="M7.52475 0.961641L7.60771 1.21047L7.86998 1.2125C7.90393 1.21277 7.91803 1.25609 7.89068 1.27625L7.67967 1.43207L7.75877 1.68215C7.769 1.71453 7.73213 1.74129 7.70451 1.72156L7.49111 1.56902L7.27771 1.72156C7.2501 1.74133 7.21322 1.71453 7.22346 1.68215L7.30256 1.43207L7.09154 1.27625C7.06424 1.25609 7.0783 1.21273 7.11228 1.2125L7.37455 1.21047L7.45752 0.961641C7.46846 0.929453 7.514 0.929453 7.52475 0.961641Z" fill="#F5F5F5"/>
<path d="M7.52475 3.03735L7.60771 3.28618L7.86998 3.28821C7.90393 3.28849 7.91803 3.33181 7.89068 3.352L7.67967 3.50782L7.75877 3.7579C7.769 3.79028 7.73213 3.81704 7.70451 3.79732L7.49111 3.64478L7.27771 3.79732C7.2501 3.81708 7.21322 3.79028 7.22346 3.7579L7.30256 3.50782L7.09154 3.352C7.06424 3.33185 7.0783 3.28849 7.11228 3.28821L7.37455 3.28618L7.45752 3.03735C7.46846 3.00513 7.514 3.00513 7.52475 3.03735Z" fill="#F5F5F5"/>
<path d="M7.52475 5.33936L7.60771 5.58818L7.86998 5.59021C7.90393 5.59049 7.91803 5.63381 7.89068 5.654L7.67967 5.80982L7.75877 6.0599C7.769 6.09228 7.73213 6.11904 7.70451 6.09931L7.49111 5.94681L7.27771 6.09931C7.2501 6.11904 7.21322 6.09228 7.22346 6.0599L7.30256 5.80982L7.09154 5.654C7.06424 5.63384 7.0783 5.59049 7.11228 5.59021L7.37455 5.58818L7.45752 5.33936C7.46846 5.30713 7.514 5.30713 7.52475 5.33936Z" fill="#F5F5F5"/>
<path d="M7.52475 7.45447L7.60771 7.70329L7.86998 7.70532C7.90393 7.7056 7.91803 7.74892 7.89068 7.76911L7.67967 7.92493L7.75877 8.17501C7.769 8.20739 7.73213 8.23415 7.70451 8.21442L7.49111 8.06188L7.27771 8.21442C7.2501 8.23415 7.21322 8.20739 7.22346 8.17501L7.30256 7.92493L7.09154 7.76911C7.06424 7.74896 7.0783 7.7056 7.11228 7.70532L7.37455 7.70329L7.45752 7.45447C7.46846 7.42224 7.514 7.42224 7.52475 7.45447Z" fill="#F5F5F5"/>
<path d="M7.52475 9.37915L7.60771 9.62798L7.86998 9.63001C7.90393 9.63028 7.91803 9.6736 7.89068 9.69379L7.67967 9.84961L7.75877 10.0997C7.769 10.1321 7.73213 10.1588 7.70451 10.1391L7.49111 9.9866L7.27771 10.1391C7.2501 10.1588 7.21322 10.1321 7.22346 10.0997L7.30256 9.84961L7.09154 9.69379C7.06424 9.67364 7.0783 9.63028 7.11228 9.63001L7.37455 9.62798L7.45752 9.37915C7.46846 9.34692 7.514 9.34692 7.52475 9.37915Z" fill="#F5F5F5"/>
<path d="M8.53502 1.94458L8.61799 2.19341L8.88029 2.19544C8.91424 2.19571 8.92834 2.23903 8.901 2.25919L8.68998 2.41501L8.76908 2.66509C8.77932 2.69747 8.74244 2.72427 8.71482 2.7045L8.50143 2.55196L8.28803 2.7045C8.26041 2.72427 8.22354 2.69747 8.23377 2.66509L8.31287 2.41501L8.10186 2.25919C8.07455 2.23903 8.08862 2.19567 8.12256 2.19544L8.38486 2.19341L8.46783 1.94458C8.47873 1.91235 8.52428 1.91235 8.53502 1.94458Z" fill="#F5F5F5"/>
<path d="M8.53502 4.2467L8.61799 4.49553L8.88029 4.49756C8.91424 4.49784 8.92834 4.54116 8.901 4.56135L8.68998 4.71717L8.76908 4.96725C8.77932 4.99964 8.74244 5.02643 8.71482 5.00667L8.50143 4.85413L8.28803 5.00667C8.26041 5.02643 8.22354 4.99964 8.23377 4.96725L8.31287 4.71717L8.10186 4.56135C8.07455 4.5412 8.08862 4.49784 8.12256 4.49756L8.38486 4.49553L8.46783 4.2467C8.47873 4.21448 8.52428 4.21448 8.53502 4.2467Z" fill="#F5F5F5"/>
<path d="M8.53502 6.43381L8.61799 6.68264L8.88029 6.68467C8.91424 6.68494 8.92834 6.72826 8.901 6.74846L8.68998 6.90428L8.76908 7.15436C8.77932 7.18674 8.74244 7.2135 8.71482 7.19377L8.50143 7.04123L8.28803 7.19377C8.26041 7.21354 8.22354 7.18674 8.23377 7.15436L8.31287 6.90428L8.10186 6.74846C8.07455 6.7283 8.08862 6.68494 8.12256 6.68467L8.38486 6.68264L8.46783 6.43381C8.47873 6.40162 8.52428 6.40162 8.53502 6.43381Z" fill="#F5F5F5"/>
<path d="M8.53502 8.39795L8.61799 8.64678L8.88029 8.64881C8.91424 8.64908 8.92834 8.6924 8.901 8.7126L8.68998 8.86841L8.76908 9.11849C8.77932 9.15087 8.74244 9.17767 8.71482 9.1579L8.50143 9.00541L8.28803 9.1579C8.26041 9.17767 8.22354 9.15087 8.23377 9.11849L8.31287 8.86841L8.10186 8.7126C8.07455 8.69244 8.08862 8.64908 8.12256 8.64881L8.38486 8.64678L8.46783 8.39795C8.47873 8.36572 8.52428 8.36572 8.53502 8.39795Z" fill="#F5F5F5"/>
<path d="M9.54526 0.961641L9.62823 1.21047L9.8905 1.2125C9.92444 1.21277 9.93855 1.25609 9.91124 1.27625L9.70022 1.43207L9.77933 1.68215C9.78956 1.71453 9.75269 1.74129 9.72507 1.72156L9.51167 1.56902L9.29827 1.72156C9.27065 1.74133 9.23378 1.71453 9.24401 1.68215L9.32311 1.43207L9.1121 1.27625C9.08479 1.25609 9.09885 1.21273 9.1328 1.2125L9.39507 1.21047L9.47804 0.961641C9.48897 0.929453 9.53452 0.929453 9.54526 0.961641Z" fill="#F5F5F5"/>
<path d="M9.54526 3.03735L9.62823 3.28618L9.8905 3.28821C9.92444 3.28849 9.93855 3.33181 9.91124 3.352L9.70022 3.50782L9.77933 3.7579C9.78956 3.79028 9.75269 3.81704 9.72507 3.79732L9.51167 3.64478L9.29827 3.79732C9.27065 3.81708 9.23378 3.79028 9.24401 3.7579L9.32311 3.50782L9.1121 3.352C9.08479 3.33185 9.09885 3.28849 9.1328 3.28821L9.39507 3.28618L9.47804 3.03735C9.48897 3.00513 9.53452 3.00513 9.54526 3.03735Z" fill="#F5F5F5"/>
<path d="M9.54526 5.33936L9.62823 5.58818L9.8905 5.59021C9.92444 5.59049 9.93855 5.63381 9.91124 5.654L9.70022 5.80982L9.77933 6.0599C9.78956 6.09228 9.75269 6.11904 9.72507 6.09931L9.51167 5.94681L9.29827 6.09931C9.27065 6.11904 9.23378 6.09228 9.24401 6.0599L9.32311 5.80982L9.1121 5.654C9.08479 5.63384 9.09885 5.59049 9.1328 5.59021L9.39507 5.58818L9.47804 5.33936C9.48897 5.30713 9.53452 5.30713 9.54526 5.33936Z" fill="#F5F5F5"/>
<path d="M9.54526 7.45447L9.62823 7.70329L9.8905 7.70532C9.92444 7.7056 9.93855 7.74892 9.91124 7.76911L9.70022 7.92493L9.77933 8.17501C9.78956 8.20739 9.75269 8.23415 9.72507 8.21442L9.51167 8.06188L9.29827 8.21442C9.27065 8.23415 9.23378 8.20739 9.24401 8.17501L9.32311 7.92493L9.1121 7.76911C9.08479 7.74896 9.09885 7.7056 9.1328 7.70532L9.39507 7.70329L9.47804 7.45447C9.48897 7.42224 9.53452 7.42224 9.54526 7.45447Z" fill="#F5F5F5"/>
<path d="M9.54526 9.37915L9.62823 9.62798L9.8905 9.63001C9.92444 9.63028 9.93855 9.6736 9.91124 9.69379L9.70022 9.84961L9.77933 10.0997C9.78956 10.1321 9.75269 10.1588 9.72507 10.1391L9.51167 9.9866L9.29827 10.1391C9.27065 10.1588 9.23378 10.1321 9.24401 10.0997L9.32311 9.84961L9.1121 9.69379C9.08479 9.67364 9.09885 9.63028 9.1328 9.63001L9.39507 9.62798L9.47804 9.37915C9.48897 9.34692 9.53452 9.34692 9.54526 9.37915Z" fill="#F5F5F5"/>
<rect x="0.25" y="0.25" width="19.5" height="19.5" rx="3.75" stroke="#E0E0E0" stroke-width="0.5"/>
</svg>
